<?xml version="1.0" encoding="utf-8"?>
<!-- Generator: Adobe Illustrator 26.5.0, SVG Export Plug-In . SVG Version: 6.00 Build 0)  -->
<svg version="1.0" id="katman_1" xmlns="http://www.w3.org/2000/svg" xmlns:xlink="http://www.w3.org/1999/xlink" x="0px" y="0px"
	 viewBox="0 0 1190.55 841.89" style="enable-background:new 0 0 1190.55 841.89;" xml:space="preserve">
<style type="text/css">
	.st0{fill:#010202;}
	.st1{fill:#9F5224;}
	.st2{fill:#F18439;}
	.st3{fill:#F6BC93;}
	.st4{fill:#201D1E;}
</style>
<path class="st0" d="M524.41,448.71h11.07v43.51h0.26l31.07-43.51h12.33l-27.16,37.48l29.43,52.4h-12.33l-24.31-43.27l-9.31,12.7
	v30.57h-11.07L524.41,448.71z"/>
<path class="st0" d="M590.43,448.71h11.07v89.8h-11.07V448.71z"/>
<path class="st0" d="M619.23,448.71h14.32l29.69,74.97h0.24v-74.97h11.07v89.8h-15.21l-28.8-72.7h-0.24v72.7h-11.07V448.71z"/>
<path class="st0" d="M692.3,448.71h46.41v9.82h-35.28v28.17h33.19v9.82h-33.19v32.17h36.86v9.82H692.3V448.71z"/>
<path class="st0" d="M791.77,471.97c0-9.43-3.39-15.96-13.97-15.96c-9.31,0-14.85,5.03-14.85,14.58c0,25.27,42.39,10.18,42.39,43.02
	c0,20.75-15.21,26.67-27.95,26.67c-20.96,0-27.16-10.81-27.16-29.94h11.07c0,10.06,0.63,20.96,16.86,20.96
	c2.09,0.07,4.17-0.3,6.11-1.07c1.94-0.78,3.7-1.94,5.16-3.43c1.47-1.49,2.61-3.26,3.35-5.22c0.75-1.95,1.08-4.03,0.98-6.12
	c0-25.41-42.39-10.69-42.39-43.67c0-8.3,3.49-24.79,26.2-24.79c17.1,0,24.91,8.56,25.15,25.03L791.77,471.97z"/>
<path class="st0" d="M819.68,448.71h11.07v89.8h-11.07V448.71z"/>
<path class="st0" d="M886.6,471.97c0-9.43-3.39-15.96-13.97-15.96c-9.31,0-14.85,5.03-14.85,14.58c0,25.27,42.39,10.18,42.39,43.02
	c0,20.75-15.21,26.67-27.95,26.67c-20.96,0-27.16-10.81-27.16-29.94h11.07c0,10.06,0.63,20.96,16.86,20.96
	c2.09,0.07,4.17-0.3,6.11-1.07c1.94-0.78,3.7-1.94,5.16-3.43c1.46-1.49,2.61-3.26,3.35-5.22c0.74-1.95,1.08-4.03,0.98-6.12
	c0-25.41-42.39-10.69-42.39-43.67c0-8.3,3.49-24.79,26.2-24.79c17.1,0,24.91,8.56,25.15,25.03L886.6,471.97z"/>
<path class="st1" d="M120.03,304.68c54.78-27.48,109.8-54.5,164.66-81.83v197.72H120.03V304.68z"/>
<path class="st2" d="M284.69,222.85c11.11,5.36,22.1,11,33.19,16.49v181.24h-33.19C284.68,354.67,284.68,288.77,284.69,222.85z"/>
<path class="st1" d="M317.86,295.14c9.47-2.76,19-5.33,28.47-8.1c-0.23,44.51,0,89.08,0,133.53h-28.47V295.14z"/>
<path class="st2" d="M346.33,287.04c8.58,3.27,17.1,6.69,25.68,9.96v123.58h-25.76C346.3,376.05,346.11,331.54,346.33,287.04z"/>
<path class="st1" d="M393.69,328.26c13.01-2.41,26.04-4.77,39.04-7.27v99.56h-18.79v-80.19c-6.57-2.03-13.17-3.86-19.81-5.61
	C393.93,332.59,393.81,330.42,393.69,328.26L393.69,328.26z"/>
<path class="st2" d="M432.69,320.99c5.55,2.11,11.09,4.3,16.59,6.6v92.96h-16.59V320.99z"/>
<path class="st1" d="M372.03,338.32c7.23-1.27,14.53-2.22,21.76-3.63c0.1,28.63,0,57.26,0,85.88h-21.78
	C372.01,393.15,372.02,365.73,372.03,338.32z"/>
<path class="st2" d="M393.79,334.63l0.28,0.09c6.64,1.75,13.24,3.49,19.81,5.61c0.12,26.74,0,53.47,0,80.19h-20.05
	C393.83,391.94,393.9,363.31,393.79,334.63L393.79,334.63z"/>
<path class="st3" d="M253.25,437.97c13.97-0.3,27.95-1.83,41.92-0.82c41.92,1.71,83.89,3.39,125.9,5.05
	c6.01,0.28,12.23-0.16,17.94,1.94c-3.37,0.59-6.73,1.27-10.13,1.66c-48.21,4.72-96.4,9.69-144.62,14.31
	c-54.73-5.26-109.46-10.76-164.19-16.49C164.42,441.09,208.85,439.96,253.25,437.97L253.25,437.97z"/>
<path class="st2" d="M439.01,444.13c3.27-0.4,6.56-0.62,9.85-0.66v34.83c-19.51,4.84-39.06,9.57-58.57,14.5
	c-35.35,8.56-70.65,17.47-106.01,25.97V460.1c48.23-4.61,96.42-9.59,144.63-14.31C432.29,445.41,435.64,444.67,439.01,444.13
	L439.01,444.13z"/>
<path class="st1" d="M120.03,443.61c54.73,5.72,109.46,11.21,164.19,16.49v58.67c-35.49-8.42-70.83-17.55-106.32-26.08
	c-19.21-4.91-38.62-9.5-57.9-14.39C120.02,466.73,120.03,455.17,120.03,443.61L120.03,443.61z"/>
<path class="st3" d="M177.95,492.69c35.49,8.52,70.83,17.66,106.27,26.08c35.35-8.56,70.65-17.47,106.01-25.97
	c19.63,3.18,39.35,5.64,59,8.63c-55.04,19.04-109.85,38.76-164.89,57.78c-54.58-19.68-109.52-38.55-164.31-57.85
	C139.35,498.44,158.79,496.36,177.95,492.69L177.95,492.69z"/>
<path class="st1" d="M120.03,501.35c54.78,19.21,109.71,38.17,164.35,57.85c-0.32,19.65,0,39.3-0.16,58.95
	c-54.79-27.13-109.45-54.51-164.19-81.69V501.35z"/>
<path class="st2" d="M284.4,559.2c55.04-19.02,109.85-38.74,164.89-57.78v34.41c-54.88,27.7-110.04,54.67-165.04,82.32
	C284.36,598.5,284.08,578.85,284.4,559.2L284.4,559.2z"/>
<path class="st4" d="M562.68,316.61c-16.14,0-33.97,6.25-37.87,26.69c-0.09,0.37-0.11,0.76-0.04,1.14c0.06,0.38,0.2,0.74,0.4,1.07
	c0.2,0.33,0.47,0.61,0.78,0.83c0.31,0.22,0.67,0.38,1.04,0.46h0.28l16.56,1.99c0.76-0.22,1.43-0.68,1.9-1.31
	c0.48-0.63,0.74-1.4,0.75-2.18c0.62-3.11,2.36-5.88,4.89-7.79c2.53-1.91,5.67-2.83,8.82-2.59c1.82-0.08,3.62,0.28,5.27,1.04
	s3.09,1.92,4.2,3.36c1.93,3.9,2.7,8.27,2.22,12.59v2.41c-10.91,0.46-21.69,2.47-32.03,5.96c-5.53,2.35-10.22,6.32-13.45,11.39
	c-3.23,5.07-4.84,11-4.62,17.01c0,18.13,11.32,27.16,25.36,27.16c5.35,0.32,10.69-0.65,15.58-2.85c4.89-2.19,9.17-5.54,12.49-9.75
	c2.46,4.31,5.66,8.14,9.47,11.32c0.63,0.34,1.35,0.48,2.07,0.39c0.71-0.08,1.38-0.39,1.92-0.86c3.49-3.13,9.47-8.73,13.01-11.68
	c0.63-0.63,0.98-1.48,0.98-2.37c0-0.89-0.35-1.74-0.98-2.37c-4.06-4.38-6.34-10.11-6.39-16.09v-26.32c0-11.32,0.94-22.1-7.28-30.06
	C580.88,319.36,571.88,316.3,562.68,316.61L562.68,316.61z M785.12,316.61c-16.14,0-33.97,6.25-37.87,26.69
	c-0.09,0.37-0.11,0.76-0.04,1.14c0.06,0.38,0.2,0.74,0.4,1.07c0.2,0.33,0.47,0.61,0.78,0.83c0.31,0.22,0.67,0.38,1.04,0.46h0.28
	l16.59,1.94c0.8-0.18,1.52-0.62,2.04-1.25s0.82-1.42,0.84-2.24c0.63-3.1,2.36-5.86,4.88-7.77c2.52-1.91,5.65-2.83,8.8-2.59
	c1.82-0.08,3.62,0.28,5.27,1.04c1.65,0.77,3.09,1.92,4.2,3.36c1.84,3.94,2.5,8.32,1.92,12.63v2.41
	c-10.83,0.46-21.54,2.47-31.81,5.96c-5.53,2.35-10.22,6.32-13.45,11.39c-3.23,5.07-4.84,11-4.62,17.01
	c0,18.13,11.32,27.16,25.36,27.16c5.35,0.32,10.69-0.65,15.58-2.85c4.89-2.19,9.17-5.54,12.49-9.75c2.45,4.31,5.66,8.14,9.47,11.32
	c0.63,0.34,1.35,0.48,2.07,0.39c0.71-0.08,1.38-0.39,1.92-0.86c3.49-3.13,9.47-8.73,13.01-11.68c0.59-0.65,0.92-1.49,0.92-2.37
	c0-0.88-0.33-1.72-0.92-2.37c-4.06-4.38-6.34-10.11-6.39-16.09v-26.32c0-11.32,0.75-22.1-7.48-30.06
	c-7.08-5.88-16.08-8.95-25.27-8.61V316.61z M659.99,317.5c-5.02-0.11-9.94,1.44-13.98,4.43c-4.04,2.98-6.98,7.22-8.36,12.05v-11.56
	c-0.05-0.81-0.4-1.58-0.98-2.15c-0.58-0.58-1.34-0.92-2.15-0.98H618.8c-0.85,0-1.67,0.32-2.29,0.9s-1,1.38-1.06,2.23v89.39
	c0.08,0.8,0.44,1.55,1.01,2.12c0.57,0.57,1.32,0.92,2.12,1.01h17c0.86-0.02,1.68-0.37,2.29-0.98c0.61-0.61,0.96-1.43,0.98-2.29
	v-47.33c0-10.36-0.52-24.45,11.68-24.45c12.21,0,10.36,14.58,10.36,24.45v47.33c0.05,0.83,0.39,1.61,0.96,2.21
	c0.57,0.6,1.34,0.97,2.16,1.06H681c0.86-0.02,1.68-0.37,2.29-0.98c0.61-0.61,0.96-1.43,0.98-2.29v-47.33
	c-0.39-5.71,0.12-11.45,1.52-17c0.75-2.08,2.1-3.9,3.87-5.22c1.77-1.33,3.9-2.1,6.11-2.23c2.32-0.29,4.66,0.34,6.51,1.77
	c1.85,1.43,3.06,3.53,3.37,5.85c0.56,5.65,0.72,11.33,0.47,16.99v47.33c0.05,0.83,0.39,1.61,0.96,2.21c0.57,0.6,1.34,0.97,2.16,1.06
	h16.99c0.86-0.02,1.68-0.37,2.29-0.98c0.61-0.61,0.96-1.43,0.98-2.29v-56.84c0-9.47,0.94-20.49-4.4-28.07
	c-2.74-3.44-6.35-6.08-10.46-7.66c-4.1-1.58-8.55-2.04-12.89-1.32c-4.34,0.71-8.41,2.57-11.79,5.37c-3.38,2.81-5.96,6.46-7.46,10.59
	c-5.24-11.16-11.88-16.33-22.48-16.33L659.99,317.5z M949.01,317.5c-24.45,0-38.2,21.59-38.2,49.41s13.48,49.82,38.2,49.82
	c23.67,0,38.81-21.73,38.81-49.03c0-28.1-13.76-50.27-39.14-50.27L949.01,317.5z M1045.93,317.5c-11.74,0-18.41,5.68-23.2,18.08
	v-13.62c-0.19-0.69-0.6-1.31-1.17-1.74c-0.57-0.44-1.27-0.67-1.99-0.67h-15.72c-0.79,0.01-1.54,0.3-2.12,0.83
	c-0.58,0.53-0.95,1.25-1.04,2.03v89.31c0.05,0.83,0.4,1.62,0.98,2.22s1.35,0.97,2.18,1.05h17c0.86-0.02,1.68-0.37,2.29-0.98
	c0.61-0.61,0.96-1.43,0.98-2.29v-48.07c-0.24-5.8,0.74-11.6,2.88-17c0.69-1.94,1.91-3.65,3.53-4.92c1.62-1.27,3.56-2.06,5.61-2.28
	c11.73,0,10.6,14.2,10.6,24.03v48.56c0.11,0.77,0.47,1.47,1.05,2c0.57,0.53,1.31,0.84,2.07,0.88h16.87c0.8-0.01,1.57-0.31,2.16-0.84
	c0.6-0.53,1-1.25,1.1-2.04v-56.16c0-8.73,0-20.68-4.4-27.83c-2.06-3.37-4.99-6.13-8.47-7.99c-3.49-1.87-7.4-2.77-11.35-2.63
	L1045.93,317.5z M841.9,319.02c-0.83,0-1.63,0.33-2.21,0.92c-0.59,0.59-0.92,1.38-0.92,2.21v12.82c-0.04,0.82,0.25,1.62,0.8,2.24
	c0.55,0.61,1.32,0.98,2.14,1.03H871l-33.08,49.17c-1.6,2.63-2.41,5.66-2.36,8.73v13.01c-0.02,0.49,0.07,0.97,0.29,1.41
	c0.21,0.44,0.53,0.82,0.92,1.11c0.4,0.29,0.86,0.47,1.34,0.53c0.48,0.06,0.98,0,1.43-0.17c9.07-4.83,19.18-7.35,29.46-7.35
	s20.39,2.52,29.46,7.35c0.47,0.19,0.98,0.25,1.48,0.2c0.5-0.06,0.98-0.23,1.4-0.52c0.42-0.28,0.76-0.67,0.99-1.11
	c0.23-0.45,0.35-0.94,0.35-1.45v-13.55c-0.06-0.99-0.38-1.95-0.93-2.79c-0.55-0.83-1.31-1.5-2.2-1.95
	c-9.79-5.25-20.84-7.71-31.93-7.11l28.99-42.58c2.05-2.25,3.49-4.98,4.19-7.95v-10.81c0.04-0.82-0.25-1.62-0.8-2.24
	c-0.55-0.61-1.32-0.98-2.14-1.03h-55.89L841.9,319.02z M948.96,336.01c2.59-0.15,5.15,0.64,7.22,2.22c2.06,1.58,3.49,3.85,4.01,6.39
	c1.92,7.74,2.73,15.7,2.41,23.67c0,11.32-0.58,30.43-13.68,30.43s-13.19-23.67-13.19-34.39s0.58-28.4,12.87-28.4L948.96,336.01z
	 M571.67,368.43v3.74c0.65,6.32-0.43,12.71-3.13,18.46c-1.04,2.26-2.68,4.19-4.74,5.59c-2.06,1.4-4.46,2.21-6.94,2.35
	c-6.53,0-10.36-5.24-10.36-12.82c-0.19-14.67,13.01-17.27,25.22-17.27L571.67,368.43z M794.11,368.43v3.74
	c0.67,6.35-0.41,12.77-3.13,18.55c-1.04,2.26-2.68,4.2-4.74,5.6c-2.06,1.4-4.46,2.21-6.95,2.35c-6.53,0-10.36-5.24-10.36-12.82
	c0-14.81,12.87-17.47,25.08-17.47L794.11,368.43z"/>
</svg>
